<svg version="1.1" id="Calque_1" xmlns="http://www.w3.org/2000/svg" x="0" y="0" viewBox="0 0 395.1 83.4"
	xml:space="preserve">
	<style>
		.st0 {
			fill: #3f8cc6
		}
	</style>
	<g id="Groupe_239" transform="translate(99 18)">
		<path id="Tracé_11_1_" class="st0"
			d="M1.5 42.6c2.1 1.4 4.6 2.1 7.1 2.1 3.8 0 7.2-2.2 7.2-6.3 0-2.5-1.4-4.3-4.9-6.3-4.3-2.3-6.6-5-6.6-8.6 0-6 5.2-9.8 11.3-9.8 2.4-.1 4.8.6 6.8 1.8l-1.5 3.3c-1.8-1-3.8-1.6-5.8-1.5-4.1 0-6.6 2.7-6.6 5.5s1.7 4.3 5.2 6.2c4.1 2.2 6.4 4.8 6.4 8.9 0 5.8-4.6 10.3-12.1 10.3-3.4 0-6.6-1.1-8-2.3l1.5-3.3z" />
		<path id="Tracé_12_1_" class="st0" d="M35.5 17.3h-9.8l.7-3.6h23.7l-.7 3.6h-9.8L34 48.2h-4.1l5.6-30.9z" />
		<path id="Tracé_13_1_" class="st0"
			d="M58 13.7l-3.8 20.4c-.3 1.4-.4 2.8-.4 4.2 0 4.3 2.5 6.4 6.2 6.4 4.6 0 7.9-3.1 9.3-10.5l3.8-20.5h4.1l-3.8 20.6c-1.9 9.9-6.9 14-14 14-5.5 0-9.7-3-9.7-9.8 0-1.5.2-3.1.4-4.6l3.7-20.1 4.2-.1z" />
		<path id="Tracé_14_1_" class="st0"
			d="M84.4 14.4c2.8-.5 5.6-.7 8.4-.7 5.7 0 10 1.6 12.5 4.5 1.8 1.9 3.2 5 3.2 9.2 0 6.2-2.5 12.3-6.9 16-3.9 3.3-8.9 4.7-15.4 4.7-2.8 0-5.5-.1-8.3-.4l6.5-33.3zm-1.6 29.9c1.4.2 2.9.3 4.3.2 5.3 0 9.8-1.3 12.6-4.2 3.2-3.3 5-7.7 5-12.3 0-5.9-4-10.4-12.3-10.4-1.5 0-3.1.1-4.6.3l-5 26.4z" />
		<path id="Tracé_15_1_" class="st0" d="M121 13.8l-6.3 34.4h-4.1l6.3-34.4h4.1z" />
		<path id="Tracé_16_1_" class="st0"
			d="M153.2 27.4c0 5.8-2.1 12.2-6 16.1-3 3-7.2 4.7-11.4 4.7-8.6 0-12.7-6.5-12.7-13.6 0-5.9 2.3-12.4 6.4-16.4 3-2.9 7-4.5 11.2-4.5 8.9.1 12.5 6.6 12.5 13.7zm-20.7-6.8c-3.2 3.2-5.1 9.1-5.1 13.7 0 5.4 2.4 10.4 9 10.4 2.9-.1 5.6-1.2 7.6-3.3 3.1-3.2 4.9-9.2 4.9-13.8 0-4.8-1.5-10.4-8.8-10.4-2.9.1-5.7 1.3-7.6 3.4z" />
		<g id="Groupe_3_1_" transform="translate(157.801)">
			<path id="Tracé_17_1_" class="st0"
				d="M20.9 30l-3.2-16.2H7.3L0 48.2h9.5L13.4 30l2.2 12.8h5L28.3 30l-3.8 18.2H34l7.3-34.5H31L20.9 30z" />
			<path id="Tracé_18_1_" class="st0"
				d="M73.1 18.1c-1.1-1.3-2.5-2.4-4.1-3.2-1.8-.8-3.7-1.2-5.6-1.2-2.7 0-5.4.6-7.9 1.7s-4.7 2.6-6.6 4.5c-1.9 1.9-3.4 4.1-4.5 6.5-1.1 2.4-1.7 4.9-1.7 7.5 0 1.8.3 3.6.9 5.4.5 1.7 1.4 3.2 2.5 4.6 1.1 1.3 2.6 2.4 4.1 3.2 1.8.8 3.7 1.2 5.6 1.2 2.7 0 5.4-.6 7.9-1.7 2.4-1.1 4.7-2.7 6.6-4.6 1.9-1.9 3.4-4.1 4.5-6.5 1.1-2.3 1.7-4.9 1.7-7.5 0-1.8-.3-3.6-.9-5.3-.5-1.7-1.3-3.3-2.5-4.6zm-6.7 14.4c-.4 1.3-1 2.5-1.7 3.6-.8 1.1-1.8 2-2.9 2.7-1.2.7-2.6 1.1-4 1.1-.9 0-1.7-.2-2.5-.6-.7-.4-1.2-.9-1.7-1.5-.4-.6-.8-1.4-1-2.1-.2-.8-.3-1.7-.3-2.5 0-1.3.2-2.6.6-3.9.4-1.3 1-2.5 1.7-3.6.8-1.1 1.7-2 2.9-2.7 1.2-.7 2.6-1.1 4-1.1.9 0 1.7.2 2.5.5.7.3 1.3.8 1.7 1.4.4.6.8 1.4 1 2.1.2.8.3 1.7.3 2.5 0 1.5-.2 2.8-.6 4.1z" />
			<path id="Tracé_19_1_" class="st0"
				d="M128.5 18.1c-1.1-1.3-2.5-2.4-4.1-3.2-1.8-.8-3.7-1.2-5.6-1.2-2.7 0-5.4.6-7.9 1.7s-4.7 2.6-6.6 4.5c-1.9 1.9-3.4 4.1-4.5 6.5-1.1 2.4-1.7 4.9-1.7 7.5 0 1.8.3 3.6.9 5.4.5 1.7 1.4 3.2 2.5 4.6 1.1 1.3 2.6 2.4 4.1 3.2 1.8.8 3.7 1.2 5.6 1.2 2.7 0 5.4-.6 7.9-1.7 2.4-1.1 4.7-2.7 6.6-4.6 1.9-1.9 3.4-4.1 4.5-6.5 1.1-2.3 1.7-4.9 1.7-7.5 0-1.8-.3-3.6-.9-5.3-.5-1.7-1.3-3.3-2.5-4.6zm-6.7 14.4c-.4 1.3-1 2.5-1.7 3.6-.8 1.1-1.8 2-2.9 2.7-1.2.7-2.6 1.1-4 1.1-.9 0-1.7-.2-2.5-.6-.7-.4-1.2-.9-1.7-1.5-.4-.6-.8-1.4-1-2.1-.2-.8-.3-1.7-.3-2.5 0-1.3.2-2.6.6-3.9.4-1.3 1-2.5 1.7-3.6.8-1.1 1.7-2 2.9-2.7 1.2-.7 2.6-1.1 4-1.1.9 0 1.7.2 2.5.5.7.3 1.3.8 1.7 1.4.4.6.8 1.4 1 2.1.2.8.3 1.7.3 2.5 0 1.5-.2 2.8-.6 4.1z" />
			<path id="Tracé_20_1_" class="st0"
				d="M10.4 0L8.7 8.3H87L84.1 22l-5.6 26.3H88l2.9-13.7 5.6-26.3h40l1.8-8.3H10.4z" />
		</g>
	</g>
	<g id="Groupe_328" transform="translate(-4655.176 3039.814)">
		<g id="Groupe_327">
			<g id="Groupe_326">
				<path id="Tracé_80"
					d="M4693.4-2967.4c.2-.4.8-1.2 1.6-2.3l.1-.2c.1-.2.2-.3.3-.5l.1-.2c.1-.1.2-.3.3-.5l.1-.2c.6-1 1.3-2 2.1-3.2l.1-.1c.2-.4.5-.7.7-1.1l.4-.6.3-.4c.1-.1.1-.2.2-.3.3-.5.6-.9.9-1.4.1-.1.2-.3.2-.4.3-.5.6-1 .9-1.6.1-.1.1-.2.2-.3 5.1-8.6 10.6-19.3 10.6-24.9v-.1-.3c-.2-10.4-8.7-18.7-19.1-18.7-10.6 0-19.1 8.6-19.1 19.1 0 0 0 0 0 0 0 10.6 19.1 38.4 19.1 38.4v-.2h0z"
					fill="none" stroke="#3f8cc6" stroke-width="2.728" stroke-miterlimit="10" />
			</g>
			<path id="Tracé_81" class="st0"
				d="M4699.2-2976.4l-.1.1-.4.6c-.2.4-.5.7-.7 1.1l-.1.1c-.8 1.2-1.4 2.3-2.1 3.2l-.1.2c-.1.2-.2.3-.3.5l-.1.2c-.1.2-.2.3-.3.5l-.1.2c-.8 1.2-1.3 2-1.6 2.3v.1l-.1.2s-19.1-27.9-19.1-38.4c0-10.6 8.6-19.1 19.1-19.1 10.4 0 18.9 8.3 19.1 18.7v.4c0 4.9-4.1 13.6-8.6 21.4 8.8 2 17.9 2.2 26.8.6v-28.2c0-4.7-3.3-10.5-7.3-12.8L4700-3038c-4.6-2.4-10.1-2.4-14.8 0l-23 13.5c-2.9 1.7-5.3 5.2-6.5 8.7v-.1c-.5 1.3-.7 2.7-.7 4.1V-2984.3c0 .5 0 1 .1 1.5 1-.6 10.9-6.9 22.8-7l4.8 8.7s-8.9-.6-15.3 1.9c-3.1 1.2-6 2.6-8.8 4.4 1 1.3 2.2 2.4 3.6 3.3l23 13.5c4.6 2.4 10.1 2.4 14.8 0l23.2-13.5c1.2-.7 2.2-1.6 3.1-2.6-2 .2-12.6 1.5-27.1-2.3z" />
		</g>
		<circle id="Ellipse_28" class="st0" cx="4692.9" cy="-3004.8" r="10.6" />
	</g>
</svg>
