<svg width="200" height="70" viewBox="0 0 200 70" fill="none" xmlns="http://www.w3.org/2000/svg">
<path d="M32.4904 0.780243L32.3621 0.803391L32.2336 0.781929C31.5796 0.672707 30.8296 0.904251 29.9508 1.73203L13.9457 38.7576L63.1476 67.3534L34.7867 1.72897C33.9101 0.889015 33.1561 0.660065 32.4904 0.780243ZM12.7939 41.4984L1.59348 67.3543L29.4591 51.1859L12.7939 41.4984Z" fill="#3B82F6" stroke="black" stroke-width="1.5"/>
<path d="M58.9292 18.9165H65.5921L84.3173 63.7838L82.3644 68.0166H79.2627L58.9292 18.9165ZM82.9388 51.2736L96.954 18.9165H103.617L86.9595 57.6698H85.581L82.9388 51.2736Z" fill="black"/>
<path d="M109.705 12.3322C109.705 10.9526 110.548 9.98064 112.233 9.41627C112.692 9.29086 113.152 9.22815 113.611 9.22815C115.373 9.22815 116.56 9.91793 117.173 11.2975C117.326 11.6737 117.402 12.0186 117.402 12.3322C117.402 13.7745 116.56 14.7464 114.875 15.2481C114.415 15.3735 113.994 15.4362 113.611 15.4362C111.85 15.4362 110.624 14.7778 109.935 13.4609C109.782 13.0847 109.705 12.7084 109.705 12.3322ZM110.624 68.0166V19.1987H116.598V68.0166H110.624Z" fill="black"/>
<path d="M126.707 54.5658V32.1791C126.707 29.2319 128.316 26.3787 131.532 23.6196C135.362 20.4215 140.11 18.8224 145.777 18.8224V23.5255C140.646 23.5255 136.817 25.2813 134.289 28.7929C133.217 30.3606 132.681 31.897 132.681 33.4019V53.343C132.681 55.8513 134.136 58.2342 137.047 60.4916C139.65 62.4356 142.561 63.4075 145.777 63.4075V68.1106C138.655 68.1106 133.217 65.7591 129.465 61.056C127.627 58.7985 126.707 56.6351 126.707 54.5658ZM150.602 68.1106V63.4075C155.35 63.4075 158.95 61.6204 161.401 58.046C162.55 56.4784 163.124 54.9734 163.124 53.5311V33.4019C163.124 30.6428 161.669 28.1972 158.759 26.0652C156.384 24.372 153.666 23.5255 150.602 23.5255V18.8224C157.495 18.8224 162.779 21.1112 166.455 25.6889C168.217 27.9464 169.098 30.1098 169.098 32.1791V54.5658C169.098 57.5757 167.528 60.4603 164.388 63.2194C160.711 66.4175 156.116 68.0479 150.602 68.1106Z" fill="black"/>
<path d="M178.288 68.0166V18.8224H184.262V26.5355C185.793 23.9017 188.359 21.8324 191.958 20.3274C194.333 19.3241 196.783 18.8224 199.311 18.8224H200L198.506 23.5255C194.677 23.5255 191.231 25.4067 188.167 29.1692C185.64 32.3046 184.376 35.5967 184.376 39.0456V68.0166H178.288Z" fill="black"/>
</svg>
