<svg width="262" height="110" viewBox="0 0 262 110" fill="none" xmlns="http://www.w3.org/2000/svg">
<path d="M63.2908 75.4985V37.0835H89.0535V44.3452H71.9524V52.3829H87.1657V59.6447H71.9524V75.4985H63.2908ZM95.1732 37.0835H103.835V75.4985H95.1732V37.0835ZM120.959 76.33C119.959 76.33 118.904 76.2564 117.794 76.1083C116.683 75.9974 115.61 75.8311 114.573 75.6094C113.537 75.3877 112.593 75.1478 111.742 74.8888C110.89 74.6302 110.224 74.3899 109.743 74.1681L111.353 67.2944C112.315 67.7011 113.537 68.1446 115.018 68.6248C116.535 69.0683 118.404 69.29 120.625 69.29C123.179 69.29 125.049 68.8098 126.233 67.8488C127.417 66.8882 128.01 65.5946 128.01 63.9685C128.01 62.9707 127.788 62.1392 127.344 61.474C126.936 60.772 126.363 60.2176 125.622 59.811C124.882 59.3675 123.994 59.0722 122.957 58.9241C121.958 58.7396 120.884 58.6469 119.737 58.6469H116.517V51.9949H120.181C120.995 51.9949 121.773 51.9213 122.513 51.7732C123.291 51.6255 123.975 51.3852 124.568 51.0526C125.16 50.6831 125.622 50.2029 125.956 49.6113C126.326 48.9833 126.511 48.2073 126.511 47.2831C126.511 46.5811 126.363 45.9713 126.067 45.4538C125.77 44.9367 125.382 44.5115 124.901 44.1789C124.456 43.8463 123.919 43.6063 123.291 43.4582C122.698 43.2736 122.087 43.1812 121.458 43.1812C119.866 43.1812 118.386 43.4214 117.016 43.9017C115.684 44.3824 114.462 44.9735 113.352 45.6755L110.409 39.6335C111.001 39.2639 111.686 38.8759 112.463 38.4694C113.278 38.0629 114.166 37.6933 115.129 37.3607C116.091 37.0281 117.109 36.7509 118.182 36.5292C119.293 36.3075 120.459 36.1966 121.68 36.1966C123.938 36.1966 125.881 36.4738 127.51 37.0281C129.176 37.5455 130.545 38.3031 131.619 39.3009C132.692 40.2617 133.488 41.4073 134.006 42.7377C134.524 44.0312 134.784 45.4538 134.784 47.0059C134.784 48.5213 134.358 49.9993 133.507 51.4406C132.655 52.845 131.508 53.9169 130.064 54.6557C132.063 55.469 133.599 56.6885 134.673 58.3143C135.783 59.9037 136.338 61.8252 136.338 64.0793C136.338 65.8532 136.042 67.498 135.45 69.0129C134.858 70.4914 133.932 71.7845 132.674 72.8932C131.415 73.965 129.805 74.8152 127.843 75.4431C125.918 76.0347 123.624 76.33 120.959 76.33ZM152.96 68.4585C153.367 68.4958 153.83 68.5326 154.348 68.5694C154.903 68.5694 155.551 68.5694 156.291 68.5694C160.622 68.5694 163.824 67.4794 165.897 65.2989C168.007 63.1188 169.062 60.1068 169.062 56.2633C169.062 52.2353 168.062 49.1864 166.063 47.1168C164.064 45.0476 160.9 44.0126 156.569 44.0126C155.976 44.0126 155.366 44.0312 154.737 44.068C154.107 44.068 153.515 44.1052 152.96 44.1789V68.4585ZM178.001 56.2633C178.001 59.5892 177.482 62.4904 176.446 64.9663C175.409 67.4426 173.929 69.4936 172.004 71.1193C170.117 72.7455 167.803 73.965 165.064 74.7779C162.325 75.5912 159.252 75.9974 155.847 75.9974C154.292 75.9974 152.478 75.9238 150.406 75.7757C148.333 75.6648 146.297 75.4063 144.298 74.9996V37.5824C146.297 37.2129 148.37 36.9727 150.517 36.8618C152.7 36.714 154.57 36.6401 156.125 36.6401C159.419 36.6401 162.399 37.0097 165.064 37.7487C167.766 38.4879 170.079 39.652 172.004 41.241C173.929 42.8301 175.409 44.8627 176.446 47.3385C177.482 49.8148 178.001 52.7896 178.001 56.2633ZM190.564 71.1193C190.564 72.7823 190.027 74.0573 188.954 74.9442C187.917 75.7943 186.733 76.2192 185.4 76.2192C184.068 76.2192 182.864 75.7943 181.791 74.9442C180.754 74.0573 180.236 72.7823 180.236 71.1193C180.236 69.4563 180.754 68.2 181.791 67.3499C182.864 66.4629 184.068 66.0195 185.4 66.0195C186.733 66.0195 187.917 66.4629 188.954 67.3499C190.027 68.2 190.564 69.4563 190.564 71.1193ZM208.781 32.4826C210.335 32.4826 211.76 32.6489 213.056 32.9815C214.351 33.2772 215.351 33.5728 216.054 33.8684L214.444 40.465C213.704 40.1324 212.889 39.8922 212.001 39.7443C211.149 39.5596 210.353 39.4672 209.613 39.4672C208.614 39.4672 207.763 39.615 207.059 39.9106C206.393 40.1694 205.856 40.5389 205.449 41.0193C205.079 41.4997 204.801 42.0725 204.616 42.7377C204.468 43.4028 204.394 44.1234 204.394 44.8995V46.3407H214.611V53.2144H204.394V75.4985H196.121V44.7886C196.121 41.0193 197.176 38.0259 199.286 35.8086C201.433 33.5913 204.598 32.4826 208.781 32.4826ZM237.146 53.6579C236.406 53.4734 235.536 53.2885 234.536 53.1036C233.537 52.8818 232.463 52.771 231.316 52.771C230.798 52.771 230.168 52.8264 229.428 52.9373C228.725 53.0113 228.188 53.1036 227.818 53.2144V75.4985H219.545V47.8929C221.026 47.3758 222.766 46.8951 224.764 46.4516C226.8 45.9713 229.058 45.731 231.538 45.731C231.982 45.731 232.519 45.7682 233.148 45.8418C233.777 45.8791 234.407 45.9527 235.036 46.0636C235.665 46.1376 236.294 46.2485 236.924 46.3962C237.553 46.507 238.09 46.6552 238.534 46.8396L237.146 53.6579Z" fill="black"/>
<path d="M46.5332 14C47.5573 14 48.4166 14.3465 49.1106 15.0394C49.8021 15.7299 50.1478 16.5864 50.1478 17.6089V75.3519C50.1478 76.3743 49.8021 77.2318 49.1106 77.9247C48.4166 78.6155 47.5573 78.9606 46.5332 78.9606H39.3036V82.5694C39.3036 83.5919 38.9565 84.4498 38.2625 85.1427C37.5708 85.833 36.7129 86.1786 35.6887 86.1786H34.8498H29.905H28.4591C27.435 86.1786 26.5759 85.833 25.8818 85.1427C25.1902 84.4498 24.8444 83.5919 24.8444 82.5694V78.9606H17.6148C16.5906 78.9606 15.7327 78.6155 15.0411 77.9247C14.347 77.2318 14 76.3743 14 75.3519V17.6089C14 16.5864 14.347 15.7299 15.0411 15.0394C15.7327 14.3465 16.5906 14 17.6148 14H46.5332Z" fill="black"/>
<path d="M246.03 95.9946H33.3752C31.4587 95.9946 29.905 94.4438 29.905 92.53V86.1786H34.8498V87.7771C34.8498 89.6861 36.397 91.2356 38.3094 91.2416L246.037 91.8744C247.174 91.8778 248.094 92.799 248.094 93.9345C248.094 95.0722 247.17 95.9946 246.03 95.9946Z" fill="black"/>
</svg>
